<svg viewBox="0 0 48 48" xmlns="http://www.w3.org/2000/svg" fill="none">
  <rect x="6" y="6" width="36" height="36" rx="8" stroke="#10A37F" stroke-width="2.5" fill="none"/>
  <path fill="#10A37F" fill-rule="evenodd" d="M24 14a5 5 0 0 1 5 5 .75.75 0 0 1-1.5 0 3.5 3.5 0 0 0-3.5-3.5.75.75 0 0 1 0-1.5Zm0 0a5 5 0 0 0-5 5 .75.75 0 0 0 1.5 0 3.5 3.5 0 0 1 3.5-3.5.75.75 0 0 0 0-1.5ZM14 24a5 5 0 0 1 5-5 .75.75 0 0 1 0 1.5 3.5 3.5 0 0 0-3.5 3.5.75.75 0 0 1-1.5 0Zm20 0a5 5 0 0 0-5-5 .75.75 0 0 0 0 1.5 3.5 3.5 0 0 1 3.5 3.5.75.75 0 0 0 1.5 0ZM24 34a5 5 0 0 1-5-5 .75.75 0 0 1 1.5 0 3.5 3.5 0 0 0 3.5 3.5.75.75 0 0 1 0 1.5Zm0 0a5 5 0 0 0 5-5 .75.75 0 0 0-1.5 0 3.5 3.5 0 0 1-3.5 3.5.75.75 0 0 1 0 1.5ZM24 22a2 2 0 1 0 0 4 2 2 0 0 0 0-4Z" clip-rule="evenodd"/>
</svg>
